<mxfile host="app.diagrams.net" modified="2023-04-20T13:36:57.582Z" agent="Mozilla/5.0 (Macintosh; Intel Mac OS X 10_15_7) AppleWebKit/537.36 (KHTML, like Gecko) Chrome/112.0.0.0 Safari/537.36" etag="2fYNUwJfQ5Kf8wdjwpT6" version="21.2.1" type="github">
  <diagram name="第 1 页" id="8L0c7GUbmjwBPtoNU49F">
    <mxGraphModel dx="1050" dy="602" grid="1" gridSize="10" guides="1" tooltips="1" connect="1" arrows="1" fold="1" page="1" pageScale="1" pageWidth="1169" pageHeight="827" math="0" shadow="0">
      <root>
        <mxCell id="0" />
        <mxCell id="1" parent="0" />
        <mxCell id="fjzckVjsFBx4tYkLJNJ8-1" value="training dataset" style="rounded=1;whiteSpace=wrap;html=1;fillColor=#dae8fc;strokeColor=#6c8ebf;" vertex="1" parent="1">
          <mxGeometry x="133" y="480" width="120" height="60" as="geometry" />
        </mxCell>
        <mxCell id="fjzckVjsFBx4tYkLJNJ8-2" value="dev dataset" style="rounded=1;whiteSpace=wrap;html=1;fillColor=#f8cecc;strokeColor=#b85450;" vertex="1" parent="1">
          <mxGeometry x="373" y="480" width="120" height="60" as="geometry" />
        </mxCell>
        <mxCell id="fjzckVjsFBx4tYkLJNJ8-4" value="" style="rounded=1;whiteSpace=wrap;html=1;" vertex="1" parent="1">
          <mxGeometry x="133" y="280" width="360" height="158" as="geometry" />
        </mxCell>
        <mxCell id="fjzckVjsFBx4tYkLJNJ8-8" value="" style="endArrow=classic;html=1;rounded=0;exitX=0.5;exitY=0;exitDx=0;exitDy=0;entryX=0.5;entryY=1;entryDx=0;entryDy=0;fillColor=#dae8fc;strokeColor=#6c8ebf;" edge="1" parent="1" source="fjzckVjsFBx4tYkLJNJ8-1" target="fjzckVjsFBx4tYkLJNJ8-4">
          <mxGeometry width="50" height="50" relative="1" as="geometry">
            <mxPoint x="196" y="450" as="sourcePoint" />
            <mxPoint x="226" y="420" as="targetPoint" />
          </mxGeometry>
        </mxCell>
        <mxCell id="fjzckVjsFBx4tYkLJNJ8-9" value="" style="endArrow=classic;html=1;rounded=0;entryX=0.5;entryY=1;entryDx=0;entryDy=0;fillColor=#f8cecc;strokeColor=#b85450;exitX=0.5;exitY=0;exitDx=0;exitDy=0;" edge="1" parent="1" source="fjzckVjsFBx4tYkLJNJ8-2" target="fjzckVjsFBx4tYkLJNJ8-4">
          <mxGeometry width="50" height="50" relative="1" as="geometry">
            <mxPoint x="432" y="518" as="sourcePoint" />
            <mxPoint x="376" y="450" as="targetPoint" />
          </mxGeometry>
        </mxCell>
        <mxCell id="fjzckVjsFBx4tYkLJNJ8-10" value="model" style="rounded=1;whiteSpace=wrap;html=1;" vertex="1" parent="1">
          <mxGeometry x="161" y="370" width="110" height="40" as="geometry" />
        </mxCell>
        <mxCell id="fjzckVjsFBx4tYkLJNJ8-11" value="model" style="rounded=1;whiteSpace=wrap;html=1;" vertex="1" parent="1">
          <mxGeometry x="346" y="370" width="110" height="40" as="geometry" />
        </mxCell>
        <mxCell id="fjzckVjsFBx4tYkLJNJ8-13" value="data distribution" style="rounded=1;whiteSpace=wrap;html=1;" vertex="1" parent="1">
          <mxGeometry x="161" y="300" width="110" height="40" as="geometry" />
        </mxCell>
        <mxCell id="fjzckVjsFBx4tYkLJNJ8-14" value="data distribution" style="rounded=1;whiteSpace=wrap;html=1;" vertex="1" parent="1">
          <mxGeometry x="346" y="300" width="110" height="40" as="geometry" />
        </mxCell>
        <mxCell id="fjzckVjsFBx4tYkLJNJ8-15" value="KL loss" style="rounded=1;whiteSpace=wrap;html=1;" vertex="1" parent="1">
          <mxGeometry x="279" y="280" width="60" height="20" as="geometry" />
        </mxCell>
        <mxCell id="fjzckVjsFBx4tYkLJNJ8-18" value="" style="endArrow=none;html=1;rounded=0;exitX=1;exitY=0.5;exitDx=0;exitDy=0;entryX=0;entryY=0.75;entryDx=0;entryDy=0;" edge="1" parent="1" source="fjzckVjsFBx4tYkLJNJ8-13" target="fjzckVjsFBx4tYkLJNJ8-15">
          <mxGeometry width="50" height="50" relative="1" as="geometry">
            <mxPoint x="406" y="410" as="sourcePoint" />
            <mxPoint x="276" y="310" as="targetPoint" />
          </mxGeometry>
        </mxCell>
        <mxCell id="fjzckVjsFBx4tYkLJNJ8-20" value="" style="endArrow=none;html=1;rounded=0;exitX=1;exitY=0.5;exitDx=0;exitDy=0;entryX=0;entryY=0.5;entryDx=0;entryDy=0;" edge="1" parent="1" source="fjzckVjsFBx4tYkLJNJ8-15" target="fjzckVjsFBx4tYkLJNJ8-14">
          <mxGeometry width="50" height="50" relative="1" as="geometry">
            <mxPoint x="436" y="440" as="sourcePoint" />
            <mxPoint x="346" y="310" as="targetPoint" />
          </mxGeometry>
        </mxCell>
        <mxCell id="fjzckVjsFBx4tYkLJNJ8-24" value="" style="endArrow=classic;html=1;rounded=0;exitX=0.5;exitY=0;exitDx=0;exitDy=0;fillColor=#f8cecc;strokeColor=#b85450;" edge="1" parent="1" source="fjzckVjsFBx4tYkLJNJ8-15">
          <mxGeometry width="50" height="50" relative="1" as="geometry">
            <mxPoint x="422" y="420" as="sourcePoint" />
            <mxPoint x="432" y="240" as="targetPoint" />
          </mxGeometry>
        </mxCell>
        <mxCell id="fjzckVjsFBx4tYkLJNJ8-25" value="" style="endArrow=classic;html=1;rounded=0;fillColor=#dae8fc;strokeColor=#6c8ebf;" edge="1" parent="1">
          <mxGeometry width="50" height="50" relative="1" as="geometry">
            <mxPoint x="312" y="280" as="sourcePoint" />
            <mxPoint x="192" y="240" as="targetPoint" />
          </mxGeometry>
        </mxCell>
        <mxCell id="fjzckVjsFBx4tYkLJNJ8-30" style="edgeStyle=orthogonalEdgeStyle;rounded=0;orthogonalLoop=1;jettySize=auto;html=1;exitX=0;exitY=0.5;exitDx=0;exitDy=0;" edge="1" parent="1" source="fjzckVjsFBx4tYkLJNJ8-28">
          <mxGeometry relative="1" as="geometry">
            <mxPoint x="132" y="510" as="targetPoint" />
            <Array as="points">
              <mxPoint x="72" y="210" />
              <mxPoint x="72" y="510" />
            </Array>
          </mxGeometry>
        </mxCell>
        <mxCell id="fjzckVjsFBx4tYkLJNJ8-31" value="Difficult Measure" style="edgeLabel;html=1;align=center;verticalAlign=middle;resizable=0;points=[];" vertex="1" connectable="0" parent="fjzckVjsFBx4tYkLJNJ8-30">
          <mxGeometry x="-0.0888" y="-2" relative="1" as="geometry">
            <mxPoint as="offset" />
          </mxGeometry>
        </mxCell>
        <mxCell id="fjzckVjsFBx4tYkLJNJ8-33" style="edgeStyle=orthogonalEdgeStyle;rounded=0;orthogonalLoop=1;jettySize=auto;html=1;exitX=0.5;exitY=0;exitDx=0;exitDy=0;" edge="1" parent="1" source="fjzckVjsFBx4tYkLJNJ8-28">
          <mxGeometry relative="1" as="geometry">
            <mxPoint x="590" y="260" as="targetPoint" />
            <Array as="points">
              <mxPoint x="193" y="160" />
              <mxPoint x="590" y="160" />
            </Array>
          </mxGeometry>
        </mxCell>
        <mxCell id="fjzckVjsFBx4tYkLJNJ8-28" value="training KL loss" style="rounded=1;whiteSpace=wrap;html=1;fillColor=#dae8fc;strokeColor=#6c8ebf;" vertex="1" parent="1">
          <mxGeometry x="133" y="180" width="120" height="60" as="geometry" />
        </mxCell>
        <mxCell id="fjzckVjsFBx4tYkLJNJ8-32" style="edgeStyle=orthogonalEdgeStyle;rounded=0;orthogonalLoop=1;jettySize=auto;html=1;entryX=1;entryY=0.5;entryDx=0;entryDy=0;" edge="1" parent="1" source="fjzckVjsFBx4tYkLJNJ8-29" target="fjzckVjsFBx4tYkLJNJ8-4">
          <mxGeometry relative="1" as="geometry">
            <mxPoint x="500" y="360" as="targetPoint" />
            <Array as="points">
              <mxPoint x="590" y="210" />
              <mxPoint x="590" y="360" />
            </Array>
          </mxGeometry>
        </mxCell>
        <mxCell id="fjzckVjsFBx4tYkLJNJ8-35" value="Model Competence&amp;nbsp;" style="edgeLabel;html=1;align=center;verticalAlign=middle;resizable=0;points=[];" vertex="1" connectable="0" parent="fjzckVjsFBx4tYkLJNJ8-32">
          <mxGeometry x="0.7093" relative="1" as="geometry">
            <mxPoint x="47" y="-50" as="offset" />
          </mxGeometry>
        </mxCell>
        <mxCell id="fjzckVjsFBx4tYkLJNJ8-29" value="dev KL loss" style="rounded=1;whiteSpace=wrap;html=1;fillColor=#f8cecc;strokeColor=#b85450;" vertex="1" parent="1">
          <mxGeometry x="373" y="180" width="120" height="60" as="geometry" />
        </mxCell>
      </root>
    </mxGraphModel>
  </diagram>
</mxfile>
